<?xml version="1.0" encoding="utf-8"?>
<!-- Generator: Adobe Illustrator 27.5.0, SVG Export Plug-In . SVG Version: 6.00 Build 0)  -->
<svg version="1.1" xmlns="http://www.w3.org/2000/svg" xmlns:xlink="http://www.w3.org/1999/xlink" x="0px" y="0px"
	 viewBox="0 0 500 500" style="enable-background:new 0 0 500 500;" xml:space="preserve">
<g id="BACKGROUND">
</g>
<g id="OBJECTS">
	<g>
		
			<line style="fill:none;stroke:#B2D3DB;stroke-width:1.085;stroke-linecap:round;stroke-miterlimit:10;stroke-dasharray:3.255,3.255;" x1="398.169" y1="263.543" x2="398.169" y2="362.417"/>
		
			<line style="fill:none;stroke:#B2D3DB;stroke-width:1.085;stroke-linecap:round;stroke-miterlimit:10;stroke-dasharray:3.255,3.255;" x1="388.04" y1="419.937" x2="359.185" y2="419.937"/>
		
			<line style="fill:none;stroke:#B2D3DB;stroke-width:1.085;stroke-linecap:round;stroke-miterlimit:10;stroke-dasharray:3.255,3.255;" x1="398.169" y1="128.417" x2="398.169" y2="112.8"/>
		
			<line style="fill:none;stroke:#B2D3DB;stroke-width:1.085;stroke-linecap:round;stroke-miterlimit:10;stroke-dasharray:3.255,3.255;" x1="398.169" y1="165.298" x2="398.169" y2="178.622"/>
		
			<line style="fill:none;stroke:#B2D3DB;stroke-width:1.085;stroke-linecap:round;stroke-miterlimit:10;stroke-dasharray:3.255,3.255;" x1="97.005" y1="399.298" x2="97.005" y2="387.692"/>
		
			<line style="fill:none;stroke:#B2D3DB;stroke-width:1.085;stroke-linecap:round;stroke-miterlimit:10;stroke-dasharray:3.255,3.255;" x1="108.503" y1="408.595" x2="222.663" y2="408.595"/>
		<g>
			<g>
				<path style="fill:#B2D3DB;" d="M250.774,130.452c3.631,3.631,3.631,9.517,0,13.147c-3.631,3.63-9.517,3.63-13.147,0
					c-3.631-3.631-3.631-9.517,0-13.147C241.257,126.821,247.143,126.821,250.774,130.452z"/>
				
					<line style="fill:none;stroke:#FFFFFF;stroke-width:2.17;stroke-miterlimit:10;" x1="237.626" y1="130.452" x2="250.774" y2="143.599"/>
			</g>
			
				<line style="fill:none;stroke:#B2D3DB;stroke-width:1.085;stroke-linecap:round;stroke-miterlimit:10;stroke-dasharray:3.255,3.255;" x1="234.468" y1="137.026" x2="206.487" y2="137.026"/>
		</g>
		<g>
			
				<ellipse transform="matrix(0.7071 -0.7071 0.7071 0.7071 -28.0509 100.0427)" style="fill:#B2D3DB;" cx="106.737" cy="83.882" rx="32.261" ry="32.261"/>
			<g>
				<g>
					
						<line style="fill:none;stroke:#B2D3DB;stroke-width:1.085;stroke-linecap:round;stroke-miterlimit:10;" x1="136.032" y1="85.608" x2="137.66" y2="85.608"/>
					
						<line style="fill:none;stroke:#B2D3DB;stroke-width:1.085;stroke-linecap:round;stroke-miterlimit:10;stroke-dasharray:3.2557,3.2557;" x1="140.915" y1="85.608" x2="184.867" y2="85.608"/>
					<polyline style="fill:none;stroke:#B2D3DB;stroke-width:1.085;stroke-linecap:round;stroke-miterlimit:10;" points="
						186.495,85.608 188.123,85.608 188.123,87.235 					"/>
					
						<line style="fill:none;stroke:#B2D3DB;stroke-width:1.085;stroke-linecap:round;stroke-miterlimit:10;stroke-dasharray:3.146,3.146;" x1="188.123" y1="90.381" x2="188.123" y2="95.1"/>
					
						<line style="fill:none;stroke:#B2D3DB;stroke-width:1.085;stroke-linecap:round;stroke-miterlimit:10;" x1="188.123" y1="96.673" x2="188.123" y2="98.301"/>
				</g>
			</g>
			<g>
				<path style="fill:#FFFFFF;" d="M117.517,94.414c-5.72,5.72-14.995,5.72-20.715,0c-5.72-5.72-5.72-14.995,0-20.715
					c5.72-5.72,14.995-5.72,20.715,0C123.238,79.42,123.238,88.694,117.517,94.414z"/>
				
					<line style="fill:none;stroke:#B2D3DB;stroke-width:2.17;stroke-miterlimit:10;" x1="119.022" y1="72.195" x2="94.452" y2="96.765"/>
			</g>
		</g>
		<g>
			<g>
				<g>
					
						<line style="fill:none;stroke:#B2D3DB;stroke-width:1.085;stroke-linecap:round;stroke-miterlimit:10;" x1="138.998" y1="166.645" x2="140.625" y2="166.645"/>
					
						<line style="fill:none;stroke:#B2D3DB;stroke-width:1.085;stroke-linecap:round;stroke-miterlimit:10;stroke-dasharray:2.9966,2.9966;" x1="143.622" y1="166.645" x2="166.097" y2="166.645"/>
					
						<line style="fill:none;stroke:#B2D3DB;stroke-width:1.085;stroke-linecap:round;stroke-miterlimit:10;" x1="167.595" y1="166.645" x2="169.222" y2="166.645"/>
				</g>
			</g>
			
				<ellipse transform="matrix(0.233 -0.9725 0.9725 0.233 -80.1885 231.6218)" style="fill:#B2D3DB;" cx="106.737" cy="166.644" rx="32.261" ry="32.261"/>
			<g>
				<path style="fill:#FFFFFF;" d="M120.43,152.542c-7.637-2.633-13.694,9.543-13.694,9.543s-6.057-12.176-13.694-9.543
					c-13.501,4.656-3.979,21.583,13.694,32.917C124.409,174.126,133.931,157.198,120.43,152.542z"/>
				<polyline style="fill:none;stroke:#B2D3DB;stroke-width:2.17;stroke-miterlimit:10;" points="86.664,170.875 99.752,170.875 
					101.786,167.334 105.652,175.887 109.517,165.559 111.958,170.723 114.603,168.293 117.248,170.723 126.809,170.723 				"/>
			</g>
		</g>
		<g>
			<path style="fill:#9797DB;" d="M398.169,165.298L398.169,165.298c-5.134,0-9.297-4.162-9.297-9.297v-18.288
				c0-5.134,4.162-9.297,9.297-9.297l0,0c5.134,0,9.297,4.162,9.297,9.297v18.288C407.465,161.136,403.303,165.298,398.169,165.298z
				"/>
			
				<line style="fill:none;stroke:#FFFFFF;stroke-width:2.17;stroke-miterlimit:10;" x1="388.872" y1="146.857" x2="407.465" y2="146.857"/>
		</g>
		<g>
			<path style="fill:#9797DB;" d="M398.169,399.298L398.169,399.298c-5.134,0-9.297-4.162-9.297-9.297v-18.288
				c0-5.134,4.162-9.297,9.297-9.297l0,0c5.134,0,9.297,4.162,9.297,9.297v18.288C407.465,395.136,403.303,399.298,398.169,399.298z
				"/>
			
				<line style="fill:none;stroke:#FFFFFF;stroke-width:2.17;stroke-miterlimit:10;" x1="388.872" y1="380.857" x2="407.465" y2="380.857"/>
		</g>
		<g>
			<path style="fill:#B2D3DB;" d="M97.005,387.692L97.005,387.692c-5.134,0-9.296-4.162-9.296-9.297v-18.288
				c0-5.134,4.162-9.297,9.296-9.297l0,0c5.134,0,9.297,4.162,9.297,9.297v18.288C106.301,383.53,102.139,387.692,97.005,387.692z"
				/>
			
				<line style="fill:none;stroke:#FFFFFF;stroke-width:2.17;stroke-miterlimit:10;" x1="87.708" y1="369.251" x2="106.301" y2="369.251"/>
		</g>
		<g>
			<path style="fill:#B2D3DB;" d="M186.293,60.917L186.293,60.917c0-5.134,4.162-9.297,9.296-9.297h18.288
				c5.134,0,9.296,4.162,9.296,9.296v0c0,5.134-4.162,9.296-9.296,9.296h-18.288C190.455,70.214,186.293,66.052,186.293,60.917z"/>
			
				<line style="fill:none;stroke:#FFFFFF;stroke-width:2.17;stroke-miterlimit:10;" x1="204.733" y1="51.621" x2="204.733" y2="70.214"/>
		</g>
		<g>
			<circle style="fill:#B2D3DB;" cx="244.2" cy="60.917" r="9.297"/>
			
				<line style="fill:none;stroke:#FFFFFF;stroke-width:2.17;stroke-miterlimit:10;" x1="250.774" y1="54.344" x2="237.626" y2="67.491"/>
		</g>
		<g>
			<path style="fill:#9797DB;" d="M250.774,82.528c3.631,3.631,3.631,9.517,0,13.147c-3.631,3.631-9.517,3.631-13.147,0
				c-3.631-3.631-3.631-9.517,0-13.147C241.257,78.897,247.143,78.897,250.774,82.528z"/>
			
				<line style="fill:none;stroke:#FFFFFF;stroke-width:2.17;stroke-miterlimit:10;" x1="237.626" y1="82.528" x2="250.774" y2="95.675"/>
		</g>
		<g>
			<path style="fill:#9797DB;" d="M404.742,181.345c3.631,3.631,3.631,9.517,0,13.147c-3.63,3.63-9.517,3.63-13.147,0
				c-3.63-3.631-3.63-9.517,0-13.147C395.226,177.714,401.112,177.714,404.742,181.345z"/>
			
				<line style="fill:none;stroke:#FFFFFF;stroke-width:2.17;stroke-miterlimit:10;" x1="391.595" y1="181.345" x2="404.742" y2="194.492"/>
		</g>
		<g>
			
				<ellipse transform="matrix(0.2307 -0.973 0.973 0.2307 58.9339 583.0303)" style="fill:#B2D3DB;" cx="398.169" cy="254.246" rx="9.297" ry="9.297"/>
			
				<line style="fill:none;stroke:#FFFFFF;stroke-width:2.17;stroke-miterlimit:10;" x1="407.465" y1="254.246" x2="388.872" y2="254.246"/>
		</g>
		<g>
			
				<ellipse transform="matrix(0.2307 -0.973 0.973 0.2307 -102.2887 710.5014)" style="fill:#B2D3DB;" cx="398.169" cy="419.937" rx="9.297" ry="9.297"/>
			
				<line style="fill:none;stroke:#FFFFFF;stroke-width:2.17;stroke-miterlimit:10;" x1="407.465" y1="419.937" x2="388.872" y2="419.937"/>
		</g>
		<g>
			
				<ellipse transform="matrix(0.7071 -0.7071 0.7071 0.7071 -260.508 188.2672)" style="fill:#9797DB;" cx="97.005" cy="408.595" rx="9.297" ry="9.297"/>
			
				<line style="fill:none;stroke:#FFFFFF;stroke-width:2.17;stroke-miterlimit:10;" x1="87.708" y1="408.595" x2="106.301" y2="408.595"/>
		</g>
		<g>
			
				<ellipse transform="matrix(0.7071 -0.7071 0.7071 0.7071 -151.2431 143.3588)" style="fill:#B2D3DB;" cx="97.428" cy="254.246" rx="9.297" ry="9.297"/>
			
				<line style="fill:none;stroke:#FFFFFF;stroke-width:2.17;stroke-miterlimit:10;" x1="106.724" y1="254.246" x2="88.131" y2="254.246"/>
		</g>
		<g>
			<path style="fill:#9797DB;" d="M90.854,232.02c-3.631-3.631-3.631-9.517,0-13.147c3.631-3.631,9.517-3.631,13.147,0
				c3.631,3.631,3.631,9.517,0,13.147C100.371,235.651,94.485,235.651,90.854,232.02z"/>
			
				<line style="fill:none;stroke:#FFFFFF;stroke-width:2.17;stroke-miterlimit:10;" x1="104.001" y1="232.02" x2="90.854" y2="218.873"/>
		</g>
		<g>
			<rect x="346.286" y="51.621" style="fill:#B2D3DB;" width="61.18" height="61.18"/>
			<g>
				<path style="fill:#FFFFFF;" d="M367.641,66.613c0,3.442-2.79,6.233-6.233,6.233s-6.233-2.79-6.233-6.233s2.79-6.233,6.233-6.233
					S367.641,63.171,367.641,66.613z"/>
				
					<line style="fill:none;stroke:#FFFFFF;stroke-width:1.085;stroke-miterlimit:10;" x1="375.791" y1="64.856" x2="398.576" y2="64.856"/>
				
					<line style="fill:none;stroke:#FFFFFF;stroke-width:1.085;stroke-miterlimit:10;" x1="375.791" y1="68.925" x2="398.576" y2="68.925"/>
				
					<line style="fill:none;stroke:#FFFFFF;stroke-width:1.085;stroke-miterlimit:10;" x1="355.175" y1="88.313" x2="398.576" y2="88.313"/>
				
					<line style="fill:none;stroke:#FFFFFF;stroke-width:1.085;stroke-miterlimit:10;" x1="355.175" y1="93.223" x2="398.576" y2="93.223"/>
				
					<line style="fill:none;stroke:#FFFFFF;stroke-width:1.085;stroke-miterlimit:10;" x1="355.175" y1="98.133" x2="398.576" y2="98.133"/>
				
					<line style="fill:none;stroke:#FFFFFF;stroke-width:1.085;stroke-miterlimit:10;" x1="355.175" y1="103.043" x2="398.576" y2="103.043"/>
			</g>
		</g>
	</g>
	<g>
		<g>
			<path style="fill:#383234;" d="M300.782,449.736c0,0-24.855,4.019-25.904,13.264h44.757l-2.359-15.308L300.782,449.736z"/>
			<path style="fill:#383234;" d="M345.946,449.736c0,0-24.855,4.019-25.904,13.264h44.757l-2.359-15.308L345.946,449.736z"/>
			<path style="fill:#3B2C33;" d="M351.439,253.134c-17.089,3.816-73.018,0-73.018,0l18.461,197.09c0,0,8.986,4.854,20.786,0
				l-0.407-146.609l22.582,146.609c0,0,4.679,2.537,11.596,2.158c6.917-0.38,11.393-2.158,11.393-2.158L351.439,253.134z"/>
			
				<line style="fill:none;stroke:#513E47;stroke-width:1.085;stroke-miterlimit:10;" x1="344.658" y1="254.118" x2="359.185" y2="451.29"/>
		</g>
		<path style="fill:#DD8D83;" d="M221.922,224.237c0,0-12.297-4.128-10.982,2.773c0,0-7.912,1.35-10.237,4.726
			c-2.325,3.376,1.275,12.752,8.701,11.102c7.426-1.65,15.331-4.192,15.331-4.192L221.922,224.237z"/>
		<g>
			<path style="fill:#FEB2A5;" d="M292.949,113.491v20.751l-5.458,2.784c0,0,3.73,16.691,17.564,16.691s18.716-21.21,18.716-21.21
				h-6.733l-5.679-29.295L292.949,113.491z"/>
			<g>
				<g>
					<path style="fill:#DD8D83;" d="M314.265,118.197l-2.905-14.986l-18.411,10.279v11.29c1.51,1.12,3.007,1.425,4.884,1.425
						C305.631,126.206,311.63,124.583,314.265,118.197z"/>
				</g>
			</g>
		</g>
		<g>
			<path style="fill:#1D0C05;" d="M285.165,94.432c1.024,3.956-0.508,7.774-3.423,8.529c-2.915,0.755-6.108-1.84-7.133-5.796
				c-1.024-3.956,0.508-7.775,3.423-8.529C280.948,87.881,284.141,90.476,285.165,94.432z"/>
			<path style="fill:#FEB2A5;" d="M278.86,84.574c0,0-2.943,5.827,1.136,17.69c0,0,3.949,19.48,14.214,20.267
				c10.265,0.787,21.864-3.929,22.789-15.31c0.702-8.632,0.083-11.946,0.083-11.946s6.039-3.733,4.276-11
				c-1.763-7.268-8.549-5.238-8.633,0.011c0,0-6.163-15.074-19.871-11.07C281.376,76.571,278.86,84.574,278.86,84.574z"/>
			<path style="fill:#1D0C05;" d="M312.726,84.287c0,0,0.353,4.204,0.066,8.301l-3.361,1.217l-4.517-12.002
				c0,0-8.416,7.877-16.803,8.455c0,0-8.609,4.292-11.908,0.388c0,0-6.753,2.627-8.132-4.511s4.991-7.46,4.991-7.46
				s-2.434-5.537,1.886-8.963c4.32-3.426,7.842-2.051,7.842-2.051s1.855-6.403,10.754-5.317c0,0,15.716-3.11,22.442,11.037
				c0,0,3.233-0.449,5.891,4.928c2.658,5.377,6.408,26.738-4.81,28.912c0,0,0.047-7.4,0.013-11.946c0,0,6.441-3.857,3.988-11.975
				C319.105,76.795,312.573,81.26,312.726,84.287z"/>
			<g>
				<g>
					<path style="fill:#1D0C05;" d="M286.303,102.024c0.199,1.017-0.266,1.984-1.04,2.158c-0.774,0.175-1.563-0.509-1.763-1.526
						c-0.199-1.018,0.266-1.984,1.04-2.158C285.314,100.324,286.104,101.007,286.303,102.024z"/>
					<path style="fill:#1D0C05;" d="M281.367,100.747l4.121-1.933C285.488,98.814,282.406,96.877,281.367,100.747z"/>
				</g>
				<g>
					<path style="fill:#1D0C05;" d="M298.402,98.456c0.402,0.956,0.143,1.996-0.579,2.325c-0.722,0.328-1.634-0.18-2.036-1.136
						c-0.402-0.956-0.143-1.996,0.579-2.325C297.089,96.992,298,97.501,298.402,98.456z"/>
					<path style="fill:#1D0C05;" d="M299.117,95.829l-4.469,0.864C294.648,96.693,295.999,93.312,299.117,95.829z"/>
				</g>
				<g>
					<path style="fill:#DD8D83;" d="M291.548,100.747c0.46,1.53,0.739,3.078,0.969,4.632l0.026,0.173l-0.144,0.201
						c-0.384,0.537-0.764,1.161-0.944,1.779c-0.207,0.613-0.2,1.247,0.116,1.628c0.33,0.406,0.993,0.601,1.65,0.526
						c0.665-0.078,1.32-0.41,1.892-0.913c-0.33,0.681-0.947,1.283-1.747,1.541c-0.774,0.255-1.791,0.213-2.506-0.494
						c-0.35-0.338-0.562-0.855-0.59-1.302c-0.043-0.46,0.031-0.9,0.15-1.306c0.275-0.807,0.675-1.488,1.233-2.106l-0.118,0.373
						C291.446,103.911,291.407,102.338,291.548,100.747z"/>
				</g>
				<path style="fill:#FFFFFF;" d="M291.787,113.452l9.741-4.053c0,0,1.981,4.676-2.368,7.09
					C294.81,118.904,291.787,113.452,291.787,113.452z"/>
				<g>
					<path style="fill:#DD8D83;" d="M318.521,82.265c-0.876-0.011-1.707,0.3-2.176,0.885c-0.484,0.594-0.612,1.352-0.727,2.206
						c-0.107,0.832-0.191,1.671-0.222,2.517c-0.043,0.841-0.052,1.702-0.037,2.531l-0.92-0.097c0.28-0.745,0.605-1.446,1.008-2.121
						c0.399-0.666,0.87-1.326,1.498-1.792c-0.413,0.655-0.686,1.35-0.944,2.055c-0.247,0.704-0.474,1.429-0.661,2.135l-0.623,2.351
						l-0.297-2.448c-0.109-0.898-0.131-1.771-0.101-2.66c0.039-0.884,0.127-1.772,0.323-2.645c0.166-0.833,0.457-1.858,1.232-2.508
						C316.642,82.009,317.715,81.947,318.521,82.265z"/>
				</g>
				<ellipse style="fill:#1D0C05;" cx="316.99" cy="88.502" rx="1.53" ry="2.484"/>
				<path style="fill:none;stroke:#818F91;stroke-width:1.085;stroke-linecap:round;stroke-miterlimit:10;" d="M317.368,89.988
					c0,0,11.693,42.05-12.923,44.695c-24.616,2.645-23.87-28.214-23.87-28.214"/>
			</g>
		</g>
		<g>
			<path style="fill:#6868AD;" d="M323.772,132.506c-6.781,6.809-20.333,16.604-20.333,16.604
				c-8.94-5.068-15.948-12.085-15.948-12.085s-9.018,4.413-9.832,5.629l6.625,110.479c0,0,15.076,6.458,56.306,0l-4.611-118.689
				L323.772,132.506z"/>
			<path style="fill:none;stroke:#40407C;stroke-width:2.17;stroke-miterlimit:10;" d="M287.491,137.026
				c0,0,20.684,17.424,36.281,22.85"/>
			<path style="fill:none;stroke:#40407C;stroke-width:2.17;stroke-miterlimit:10;" d="M303.439,149.111
				c0,0,14.661-9.859,18.243-14.602"/>
			<path style="fill:#CDDCE0;" d="M290.696,135.391l6.147,11.07l5.365,209.936h-4.557c-9.916,0-19.677-2.469-28.4-7.184l0,0
				l3.162-125.471c0,0-24.32,15.855-47.105,23.395l-5.29-27.083l37.542-19.492c0,0,7.35-48.554,11.961-52.894
				S281.219,137.761,290.696,135.391z"/>
			<path style="fill:#CDDCE0;" d="M356.729,222.128c0,0,10.986-4.476,17.089-15.229c6.103-10.754-9.358-42.954-13.834-54.933
				c-4.476-11.978-12.749-15.282-12.749-15.282c-6.035-3.662-27.192-4.374-27.192-4.374l-3.052,11.503c0,0,2.99,27.572,7.07,64.544
				l-21.854,16.348c0,0,13.156,20.454,14.783,22.433L327.678,241c4.341,39.004,9.197,81.986,12.911,113.092
				c0,0,18.988,1.628,36.89-9.765L356.729,222.128z"/>
			<g>
				<path style="fill:#FEB2A5;" d="M305.258,229.519c0,0-8.862,0.031-10.791,1.719c-1.93,1.688-0.724,4.288-0.724,4.288
					s-5.065,4.274-5.065,7.168c0,2.894,1.809,3.497,2.291,3.256c0.482-0.241,2.653-3.256,2.653-3.256s-3.015,3.015-1.688,4.221
					c1.327,1.206,2.894,0.965,2.894,0.965s-0.482,2.05,0.844,2.774c1.327,0.724,3.497,0,3.497,0s0.603,0.764,2.412,0.322
					c1.809-0.442,8.865-2.336,12.392-8.142L305.258,229.519z"/>
				
					<path style="fill:none;stroke:#DD8D83;stroke-width:0.8138;stroke-linecap:round;stroke-linejoin:round;stroke-miterlimit:10;" d="
					M291.425,245.524c0,0,3.966-6.104,5.797-7.426"/>
				
					<path style="fill:none;stroke:#DD8D83;stroke-width:0.8138;stroke-linecap:round;stroke-linejoin:round;stroke-miterlimit:10;" d="
					M294.829,247.879c0,0,3.411-5.306,5.039-6.73"/>
				
					<path style="fill:none;stroke:#DD8D83;stroke-width:0.8138;stroke-linecap:round;stroke-linejoin:round;stroke-miterlimit:10;" d="
					M299.17,250.653c0,0,1.104-3.587,4.665-6.139"/>
			</g>
			<g>
				<path style="fill:#ACC1C6;" d="M281.659,138.856c0,0,0.748,9.268,9.766,13.109l-4.883,13.594l11.941,45.126l-1.641-64.224
					l-6.147-11.07C290.696,135.391,286.703,135.821,281.659,138.856z"/>
				<path style="fill:#ACC1C6;" d="M320.043,132.309l-3.052,11.503l7.07,64.544l7.238-52.413l-7.527-8.071
					c0,0,6.274-4.739,6.29-14.881C330.062,132.991,322.417,132.112,320.043,132.309z"/>
				<path style="fill:#ACC1C6;" d="M365.225,272.159c-9.814,3.647-18.125,2.999-18.125,2.999l-0.814-8.951
					c0,0,11.008,0.357,17.371-3.28L365.225,272.159z"/>
				<path style="fill:#ACC1C6;" d="M271.115,275.202c7.765,0.994,14.613,0,14.613,0v-8.108c-7.324,1.227-14.409,0-14.409,0
					L271.115,275.202z"/>
				<g>
					<path style="fill:#ACC1C6;" d="M272.412,223.742c-0.016-2.144,0.036-4.284,0.053-6.426l0.166-6.42
						c0.122-4.28,0.341-8.554,0.507-12.832c0.254-4.273,0.46-8.548,0.758-12.82l0.468-6.405c0.196-2.133,0.354-4.268,0.582-6.4
						c0.017,2.144-0.036,4.284-0.051,6.426l-0.166,6.42c-0.125,4.28-0.34,8.554-0.509,12.832c-0.257,4.273-0.46,8.549-0.76,12.819
						l-0.468,6.405C272.798,219.476,272.64,221.611,272.412,223.742z"/>
				</g>
				<g>
					<path style="fill:#ACC1C6;" d="M327.678,241c4.835-3.197,9.762-6.208,14.646-9.284c2.454-1.519,4.881-3.076,7.301-4.642
						c2.407-1.587,4.827-3.153,7.104-4.946c-1.997,2.11-4.284,3.931-6.622,5.642c-2.338,1.719-4.754,3.325-7.207,4.865
						C337.979,235.693,332.933,238.546,327.678,241z"/>
				</g>
				<g>
					<path style="fill:#ACC1C6;" d="M324.061,208.356c3.534-2.775,7.136-5.405,10.648-8.148c1.771-1.352,3.495-2.757,5.188-4.195
						c1.673-1.459,3.356-2.918,4.761-4.673c-1.058,1.998-2.588,3.715-4.187,5.295c-1.603,1.589-3.322,3.051-5.097,4.43
						C331.809,203.804,328.059,206.296,324.061,208.356z"/>
				</g>
				<g>
					<polygon style="fill:#ACC1C6;" points="341.672,194.465 337.372,170.318 342.736,194.251 					"/>
				</g>
			</g>
		</g>
		<g>
			<path style="fill:none;stroke:#818F91;stroke-width:1.085;stroke-linecap:round;stroke-miterlimit:10;" d="M292.949,133.095
				c0,0,12.106,2.257,12.106,20.622c0,0,0.844-14.017,9.78-24.099"/>
			<path style="fill:none;stroke:#161616;stroke-width:1.085;stroke-miterlimit:10;" d="M305.055,153.716
				c0,0-8.65,33.378,9.78,61.541"/>
			<path style="fill:none;stroke:#161616;stroke-width:1.085;stroke-miterlimit:10;" d="M328.899,240.316
				c0,0,12.179,17.432-1.221,22.611c-13.4,5.179-22.047-13.307-22.047-13.307"/>
			
				<line style="fill:none;stroke:#161616;stroke-width:1.085;stroke-miterlimit:10;" x1="296.631" y1="230.34" x2="294.829" y2="224.84"/>
			<g>
				<path style="fill:#818F91;" d="M299.591,221.328c0,3.191-2.587,5.779-5.779,5.779c-3.191,0-5.779-2.587-5.779-5.779
					c0-3.191,2.587-5.779,5.779-5.779C297.004,215.55,299.591,218.137,299.591,221.328z"/>
				<circle style="fill:#DDDDDD;" cx="293.813" cy="221.328" r="1.917"/>
				<path style="fill:none;stroke:#DDDDDD;stroke-width:0.5425;stroke-miterlimit:10;" d="M297.223,221.328
					c0,1.883-1.527,3.41-3.41,3.41c-1.883,0-3.41-1.527-3.41-3.41c0-1.883,1.527-3.41,3.41-3.41
					C295.696,217.918,297.223,219.445,297.223,221.328z"/>
			</g>
		</g>
	</g>
	<g>
		<g>
			<g>
				<g>
					<rect x="121.796" y="318.286" style="fill:#606060;" width="5.56" height="144.713"/>
					<rect x="255.953" y="318.286" style="fill:#606060;" width="5.56" height="144.713"/>
					<rect x="127.355" y="332.799" style="fill:#606060;" width="128.598" height="5.696"/>
				</g>
			</g>
			<path style="fill:#606060;" d="M264.692,318.286H117.236c-2.411,0-4.366-1.955-4.366-4.366v-8.68
				c0-2.411,1.955-4.366,4.366-4.366h147.457c2.411,0,4.366,1.955,4.366,4.366v8.68
				C269.059,316.332,267.104,318.286,264.692,318.286z"/>
			<path style="fill:#ACC1C6;" d="M269.059,311.234H112.869c-2.411,0-4.366-1.955-4.366-4.366v-17.903
				c0-2.411,1.955-4.366,4.366-4.366h156.189c2.411,0,4.366,1.955,4.366,4.366v17.903
				C273.425,309.279,271.47,311.234,269.059,311.234z"/>
		</g>
		<g>
			<path style="fill:#FEB2A5;" d="M220.98,286.604c0,0-6.792-46.946-6.96-58.848c0,0-3.51-12.949-5.293-29.617l16.523-0.287
				c0,0,0.29,13.373,0.271,27.92c0,0,3.725,8.155,4.931,59.73c0,0,15.627,1.336,17.086,7.507c0,0-0.138,1.616-2.184,1.469
				c-2.046-0.147-15.704-2.939-15.704-2.939s7.434,2.146,6.161,4.392C234.685,297.915,217.104,293.717,220.98,286.604z"/>
			<path style="fill:#46270A;" d="M163.021,137.026v12.152c0,1.549-0.021,3.097-0.049,4.646
				c-0.123,6.819-1.554,34.094,17.158,34.094c17.25,0,31.705,0.445,31.705-16.457c0-16.901-2.586-46.005-2.586-46.005l-43.692-1.488
				L163.021,137.026z"/>
			<g>
				<g>
					<g>
						<path style="fill:#383234;" d="M238.703,418.852c0,0-1.352,2.922-1.468,5.806c-0.115,2.884,0.083,8.421,0.734,9.69
							c0.65,1.269,7.918,15.112,12.417,18.689s13.613,3.461,13.728,0c0.115-3.461-2.874-12.988-7.436-19.818
							C252.117,426.388,238.703,418.852,238.703,418.852z"/>
						<path style="fill:#FEB2A5;" d="M238.902,414.852c0,0-0.609,6.576,0.272,9.46c0.881,2.884,10.007,23.188,14.582,22.265
							c4.575-0.923,6.667-3.692,3.364-10.729c-3.303-7.037-6.496-12.574-6.496-12.574l0.11-8.421H238.902z"/>
					</g>
					<g>
						<path style="fill:#383234;" d="M224.686,419.937c0,0-1.877,2.922-1.992,5.806c-0.115,2.884,0.083,8.421,0.734,9.69
							c0.65,1.269,7.918,15.112,12.417,18.688c4.499,3.576,12.755,4.811,12.87,1.351c0.115-3.461-2.016-14.339-6.578-21.169
							C237.575,427.474,224.686,419.937,224.686,419.937z"/>
						<path style="fill:#FEB2A5;" d="M224.882,415.937c0,0-0.597,6.576,0.267,9.46c0.864,2.884,9.814,23.188,14.301,22.265
							c4.487-0.923,6.539-3.692,3.299-10.729c-3.239-7.037-6.371-12.574-6.371-12.574l0.108-8.421H224.882z"/>
					</g>
				</g>
				<g>
					<path style="fill:#103D5A;" d="M162.211,264.714c0,0-7.731,27.314,4.002,36.212c20.192,15.315,44.959,18.988,44.959,18.988
						s-3.554,6.239,10.714,96.023c0,0,7.324,5.154,15.461,0c0,0,7.256,4.815,14.376-0.271c0,0,13.02-108.23,3.255-120.707
						c-9.765-12.478-35.974-24.225-35.974-24.225l-0.916-5.477L162.211,264.714z"/>
					<g>
						<path style="fill:#012847;" d="M237.348,415.937l0.994-37.573c0.303-12.519,0.697-25.035,0.685-37.546
							c0.059-6.253,0.057-12.507-0.166-18.741c-0.124-3.114-0.289-6.228-0.638-9.297c-0.184-1.525-0.399-3.065-0.782-4.482
							c-0.169-0.699-0.451-1.421-0.732-1.759c-0.555-0.501-1.047-1.045-1.651-1.519c-2.348-1.952-4.965-3.676-7.595-5.342
							c-2.631-1.674-5.324-3.262-8.032-4.826c-5.387-3.184-10.894-6.167-16.397-9.168c5.723,2.561,11.334,5.36,16.912,8.237
							c2.773,1.468,5.522,2.986,8.232,4.587c2.711,1.601,5.397,3.243,7.934,5.218c0.644,0.474,1.235,1.071,1.854,1.605
							c0.376,0.417,0.612,0.854,0.79,1.258c0.176,0.408,0.318,0.812,0.433,1.211c0.465,1.6,0.681,3.176,0.895,4.754
							c0.391,3.153,0.59,6.297,0.748,9.44c0.289,6.285,0.364,12.563,0.361,18.837c-0.069,6.274-0.221,12.543-0.417,18.81
							c-0.213,6.266-0.401,12.531-0.775,18.789c-0.345,6.258-0.713,12.515-1.126,18.768
							C238.392,403.447,237.96,409.698,237.348,415.937z"/>
					</g>
				</g>
			</g>
			<g>
				<g>
					<path style="fill:#FEB2A5;" d="M176.088,142.655l0.012,21.168l-12.153,5.292c0,0,9.914,33.11,28.63,33.11
						s18.923-36.095,18.923-36.095l-13.407-3.121l-2.476-20.354H176.088z"/>
					<g>
						<g>
							<g>
								<path style="fill:#DD8D83;" d="M197.485,157.999l-1.867-15.344h-19.53l0.004,7.533
									C179.399,157.446,193.055,166.13,197.485,157.999z"/>
							</g>
						</g>
					</g>
				</g>
				<path style="fill:#9797DB;" d="M221.363,210.638c0,0,3.052,0,7.172-1.832c0,0,1.546-42.529-18.95-43.247
					c0,0-6.281,28.999-17.539,28.999c-11.258,0-24.777-27.172-24.777-27.172s-20.525,4.375-20.933,40.402
					c0,0,3.353,5.089,17.611,4.478l0.577,7.392c0.656,8.402,0.4,16.851-0.764,25.198l-3.345,23.994c0,0,10.98,5.699,29.771,5.699
					c3.048,0,5.881-0.141,8.493-0.374l0,0c21.724-1.387,27.818-5.266,27.818-5.266s-0.462-8.345-3.657-30.304
					c-2.271-15.609-6.811-20.584-9.248-22.158c-0.035-0.241-0.07-0.494-0.104-0.721
					C213.489,215.727,218.575,215.727,221.363,210.638z"/>
				<path style="fill:#6868AD;" d="M165.511,167.906l2.769-1.045c0,0,12.483,26.273,23.673,26.273
					c11.189,0,16.756-27.835,16.756-27.835l2.294,0.383c0,0-4.288,30.607-19.038,30.607
					C177.216,196.288,165.511,167.906,165.511,167.906z"/>
				<g>
					<path style="fill:#6868AD;" d="M213.489,215.727c1.421-0.481,2.736-1.159,3.911-1.968c1.162-0.829,2.153-1.865,2.766-3.104
						c0.199-0.287,0.284-0.628,0.412-0.949l0.183-0.488c0.045-0.168,0.062-0.343,0.103-0.513c0.059-0.344,0.168-0.683,0.192-1.036
						c0.009-0.354,0.029-0.71,0.054-1.067c0.049-0.358-0.015-0.717-0.036-1.078l-0.072-1.094c-0.102-0.727-0.263-1.448-0.35-2.203
						c0.319,0.676,0.587,1.382,0.87,2.092c0.149,0.741,0.403,1.479,0.434,2.253c0.184,1.541-0.128,3.157-0.827,4.584
						c-0.73,1.423-1.921,2.574-3.278,3.318C216.497,215.225,214.993,215.658,213.489,215.727z"/>
				</g>
				<path style="fill:#6868AD;" d="M228.59,206.898c-3.304,1.73-7.078,1.833-7.078,1.833s-0.165,0.957-0.731,1.948
					c0,0,3.83,0.213,7.754-1.873L228.59,206.898z"/>
				<g>
					<path style="fill:#FEB2A5;" d="M149.183,288.595c0,0,9.827-43.355,10.293-54.346c0,0,2.262-6.028,4.404-21.421l-2.152,0.361
						c-4.524-0.125-8.81-1.403-12.457-3.711l-2.152-0.872c0,0-0.399,10.378-0.752,23.812c0,0-1.919,7.041-4.398,54.67
						c0,0-18.609,2.023-20.171,7.722c0,0-0.248,2.183,3.721,1.058c1.947-0.552,15.193-2.714,15.193-2.714s-7.212,1.982-6.043,4.056
						C135.701,299.041,152.733,295.164,149.183,288.595z"/>
					
						<path style="fill:none;stroke:#DD8D83;stroke-width:0.8138;stroke-linecap:round;stroke-linejoin:round;stroke-miterlimit:10;" d="
						M123.159,292.803c0,0,9.261-2.6,15.607-2.94"/>
					
						<path style="fill:none;stroke:#DD8D83;stroke-width:0.8138;stroke-linecap:round;stroke-linejoin:round;stroke-miterlimit:10;" d="
						M121.851,295.24c0,0,11.438-2.533,16.127-3.212"/>
				</g>
				<g>
					<g>
						<polygon style="fill:#6868AD;" points="163.45,211.852 164.143,205.346 164.535,211.877 						"/>
					</g>
					<path style="fill:#6868AD;" d="M164.533,211.348c-11.863,1.646-18.178-4.714-18.178-4.714l-0.252,2.588
						c0,0,5.064,5.645,18.316,4.597L164.533,211.348z"/>
				</g>
			</g>
			<g>
				<path style="fill:#FEB2A5;" d="M190.791,101.87c0,0,17.161-1.335,17.453,19.803c0.292,21.137-6.027,32.263-16.028,32.04
					c-10.001-0.222-16.7-7.12-20.21-16.688c0,0-5.985-0.681-6.188-9.241c-0.203-8.56,6.469-8.56,9.291-6.112
					C175.108,121.673,171.634,102.983,190.791,101.87z"/>
				<g>
					<g>
						<path style="fill:#DD8D83;" d="M197.207,131.646c0.435,1.252,0.734,2.523,1.006,3.799l-0.173-0.294
							c0.74,0.55,1.354,1.191,1.815,2.008c0.236,0.4,0.404,0.857,0.48,1.34c0.071,0.492,0.096,0.965-0.105,1.496
							c-0.18,0.536-0.674,0.971-1.162,1.117c-0.49,0.152-0.956,0.16-1.402,0.119c-0.888-0.094-1.712-0.371-2.468-0.77
							c0.846,0.086,1.684,0.145,2.474,0.079c0.388-0.046,0.773-0.102,1.071-0.254c0.295-0.154,0.467-0.346,0.532-0.616
							c0.169-0.6-0.019-1.356-0.358-2.003c-0.352-0.65-0.869-1.29-1.424-1.801l-0.161-0.148l-0.011-0.146
							C197.218,134.274,197.144,132.97,197.207,131.646z"/>
					</g>
					<path style="fill:#FFFFFF;" d="M190.608,143.812l8.289,1.557c0,0-1.898,4.339-5.104,3.671
						C190.588,148.373,190.608,143.812,190.608,143.812z"/>
					<g>
						<path style="fill:#2D2D2D;" d="M192.03,131.783c-0.031,1.083-0.727,1.961-1.557,1.961c-0.829,0-1.476-0.878-1.446-1.961
							c0.031-1.083,0.727-1.961,1.557-1.961C191.413,129.822,192.06,130.7,192.03,131.783z"/>
						<path style="fill:#46270A;" d="M187.434,128.745l4.91-0.975C192.344,127.77,190.32,124.226,187.434,128.745z"/>
					</g>
					<g>
						<path style="fill:#2D2D2D;" d="M205.353,132.506c-0.031,1.083-0.727,1.961-1.557,1.961c-0.829,0-1.476-0.878-1.446-1.961
							c0.031-1.083,0.728-1.961,1.557-1.961C204.736,130.545,205.383,131.423,205.353,132.506z"/>
						<path style="fill:#46270A;" d="M202.462,128.543l4.542,1.212C207.005,129.755,204.73,124.957,202.462,128.543z"/>
					</g>
					<g>
						<path style="fill:#DD8D83;" d="M168.819,126.358c0.327-0.599,1.104-1.123,1.965-0.904c0.829,0.222,1.381,0.862,1.762,1.494
							c0.38,0.648,0.633,1.336,0.786,2.034c0.169,0.699,0.25,1.394,0.264,2.121l0.041,2.028l-0.862-1.777
							c-0.199-0.409-0.44-0.841-0.711-1.216c-0.137-0.187-0.284-0.367-0.461-0.499c-0.17-0.135-0.397-0.202-0.638-0.084
							c0.145-0.222,0.497-0.302,0.77-0.207c0.275,0.083,0.51,0.234,0.727,0.396c0.425,0.339,0.765,0.727,1.078,1.172l-0.822,0.25
							c-0.107-0.636-0.257-1.296-0.419-1.926c-0.178-0.628-0.361-1.252-0.642-1.805c-0.264-0.554-0.622-1.068-1.099-1.323
							C170.092,125.845,169.408,125.971,168.819,126.358z"/>
					</g>
				</g>
				<path style="fill:#46270A;" d="M188.749,96.197c-24.029,0-25.232,22.84-25.597,35.449h0l-0.003,0.094
					c-0.013,0.439-0.025,0.868-0.036,1.281l-0.091,4.005h8.985c-3.869-1.001-4.709-5.368-4.711-5.379
					c-0.429-3.505-0.627-9.249,2.778-8.861c4.877,0.556,5.432,8.455,5.432,8.455l1.855,1.265l0.243-8.608
					c0,0,6.048-3.504,6.909-10.346c0,0,6.201,11.714,24.738,11.904C209.249,125.456,213.677,96.197,188.749,96.197z"/>
			</g>
		</g>
	</g>
	<path style="opacity:0.5;fill:#606060;" d="M435.257,463H69.066l0,0c0,5.622,4.558,10.18,10.18,10.18h345.831
		C430.699,473.18,435.257,468.622,435.257,463L435.257,463z"/>
</g>
</svg>
